<svg width="200" height="149" viewBox="0 0 200 149" fill="none" xmlns="http://www.w3.org/2000/svg">
<ellipse cx="109.847" cy="75.5077" rx="14.7556" ry="14.7556" fill="#333333"/>
<path d="M0 119.775C0 119.775 81.1559 119.775 104.929 119.775C128.702 119.775 156.408 102.54 160.672 85.3448C160.672 85.3448 163.541 106.249 152.885 119.775C142.228 133.301 119.684 148.466 91.4029 148.466C63.1213 148.466 0 148.466 0 148.466V119.775Z" fill="#333333"/>
<path fill-rule="evenodd" clip-rule="evenodd" d="M157.555 42.7542C157.742 41.4336 157.803 39.5525 157.803 36.9792C156.983 18.1248 136.15 0.5 94.2719 0.5C36.8848 4.82369 5.88318 50.6105 0.905762 81.4706C11.4439 60.4396 38.6642 41.3386 73.3478 33.2147C106.755 25.3898 138.482 29.7647 157.555 42.7542Z" fill="#333333"/>
<path fill-rule="evenodd" clip-rule="evenodd" d="M153.729 70.3448C173.437 65.9341 180.741 65.2496 198.652 63.5709C199.095 63.5294 199.544 63.4873 200 63.4445C199.317 53.7557 181.787 45.9965 160.262 45.9965C157.506 45.9965 154.815 46.1237 152.217 46.3659L153.729 70.3448Z" fill="#333333"/>
</svg>
